<?xml version="1.0" encoding="UTF-8" standalone="no"?>
<!-- Created with Inkscape (http://www.inkscape.org/) -->

<svg
   xmlns:dc="http://purl.org/dc/elements/1.1/"
   xmlns:cc="http://creativecommons.org/ns#"
   xmlns:rdf="http://www.w3.org/1999/02/22-rdf-syntax-ns#"
   xmlns:svg="http://www.w3.org/2000/svg"
   xmlns="http://www.w3.org/2000/svg"
   xmlns:sodipodi="http://sodipodi.sourceforge.net/DTD/sodipodi-0.dtd"
   xmlns:inkscape="http://www.inkscape.org/namespaces/inkscape"
   width="210mm"
   height="297mm"
   viewBox="0 0 744.09448819 1052.3622047"
   id="svg4294"
   version="1.1"
   inkscape:version="0.91 r13725"
   sodipodi:docname="fadr-sz.svg">
  <defs
     id="defs4296" />
  <sodipodi:namedview
     id="base"
     pagecolor="#ffffff"
     bordercolor="#666666"
     borderopacity="1.0"
     inkscape:pageopacity="0.0"
     inkscape:pageshadow="2"
     inkscape:zoom="7.6591818"
     inkscape:cx="169.8197"
     inkscape:cy="619.87252"
     inkscape:document-units="px"
     inkscape:current-layer="layer1"
     showgrid="false"
     inkscape:window-width="1920"
     inkscape:window-height="1059"
     inkscape:window-x="1680"
     inkscape:window-y="0"
     inkscape:window-maximized="1" />
  <metadata
     id="metadata4299">
    <rdf:RDF>
      <cc:Work
         rdf:about="">
        <dc:format>image/svg+xml</dc:format>
        <dc:type
           rdf:resource="http://purl.org/dc/dcmitype/StillImage" />
        <dc:title></dc:title>
      </cc:Work>
    </rdf:RDF>
  </metadata>
  <g
     inkscape:label="Layer 1"
     inkscape:groupmode="layer"
     id="layer1">
    <g
       style="font-style:normal;font-variant:normal;font-weight:normal;font-stretch:normal;font-size:40px;line-height:125%;font-family:'DS Clone3D';-inkscape-font-specification:'DS Clone3D, Normal';text-align:start;letter-spacing:0px;word-spacing:0px;writing-mode:lr-tb;text-anchor:start;fill:#000000;fill-opacity:1;stroke:none;stroke-width:1px;stroke-linecap:butt;stroke-linejoin:miter;stroke-opacity:1"
       id="text4842"
       transform="translate(3.3946185,-9.2699198)">
      <path
         d="m 140.04,429.36219 -11.72,11.72 -11.28,0 -11.24,11.24 -5.8,0 0,-28.28 11.72,-11.72 28.32,0 0,5.76 -5.48,5.48 5.48,0 0,5.8 z"
         id="path4878"
         inkscape:connector-curvature="0" />
      <path
         d="m 172.8525,440.60219 -11.72,11.72 -5.8,0 0,-11.24 -5.48,0 -11.24,11.24 -5.8,0 0,-28.28 11.72,-11.72 28.32,0 0,28.28 z"
         id="path4880"
         inkscape:connector-curvature="0" />
      <path
         d="m 205.665,435.00219 -17.36,17.32 -22.68,0 0,-28.28 11.72,-11.72 22.68,0 0,5.64 5.64,0 0,17.04 z m -17.56,-0.16 0,-5.04 -4.96,0 0,5.04 4.96,0 z"
         id="path4882"
         inkscape:connector-curvature="0" />
      <path
         d="m 238.4775,429.36219 -5.64,5.64 0,5.64 -11.72,11.72 -5.76,0 0,-11.12 -11.12,11.12 -5.8,0 0,-28.32 11.72,-11.72 28.32,0 0,17.04 z"
         id="path4884"
         inkscape:connector-curvature="0" />
    </g>
    <path
       style="font-style:normal;font-variant:normal;font-weight:normal;font-stretch:normal;font-size:medium;line-height:125%;font-family:'DS Clone';-inkscape-font-specification:'DS Clone, Normal';text-align:start;letter-spacing:0px;word-spacing:0px;writing-mode:lr-tb;text-anchor:start;fill:#ffffff;fill-opacity:1;stroke:none;stroke-width:1px;stroke-linecap:butt;stroke-linejoin:miter;stroke-opacity:1"
       inkscape:connector-curvature="0"
       id="path4865"
       d="m 120.91733,431.17356 -5.64,0 0,-28.12 28.16,0 0,5.64 -22.52,0 0,5.6 22.52,0 0,5.64 -22.52,0 0,11.24 z" />
    <path
       style="font-style:normal;font-variant:normal;font-weight:normal;font-stretch:normal;font-size:medium;line-height:125%;font-family:'DS Clone';-inkscape-font-specification:'DS Clone, Normal';text-align:start;letter-spacing:0px;word-spacing:0px;writing-mode:lr-tb;text-anchor:start;fill:#ffffff;fill-opacity:1;stroke:none;stroke-width:1px;stroke-linecap:butt;stroke-linejoin:miter;stroke-opacity:1"
       inkscape:connector-curvature="0"
       id="path4867"
       d="m 176.24983,431.17356 -5.64,0 0,-11.24 -16.88,0 0,11.24 -5.64,0 0,-28.12 28.16,0 0,28.12 z m -5.64,-16.88 0,-5.6 -16.88,0 0,5.6 16.88,0 z" />
    <path
       style="font-style:normal;font-variant:normal;font-weight:normal;font-stretch:normal;font-size:medium;line-height:125%;font-family:'DS Clone';-inkscape-font-specification:'DS Clone, Normal';text-align:start;letter-spacing:0px;word-spacing:0px;writing-mode:lr-tb;text-anchor:start;fill:#ffffff;fill-opacity:1;stroke:none;stroke-width:1px;stroke-linecap:butt;stroke-linejoin:miter;stroke-opacity:1"
       inkscape:connector-curvature="0"
       id="path4869"
       d="m 209.06233,425.57356 -5.64,0 0,5.6 -22.52,0 0,-28.12 22.52,0 0,5.64 5.64,0 0,16.88 z m -5.72,0 0,-16.88 -16.8,0 0,16.88 16.8,0 z" />
    <path
       style="font-style:normal;font-variant:normal;font-weight:normal;font-stretch:normal;font-size:medium;line-height:125%;font-family:'DS Clone';-inkscape-font-specification:'DS Clone, Normal';text-align:start;letter-spacing:0px;word-spacing:0px;writing-mode:lr-tb;text-anchor:start;fill:#ffffff;fill-opacity:1;stroke:none;stroke-width:1px;stroke-linecap:butt;stroke-linejoin:miter;stroke-opacity:1"
       inkscape:connector-curvature="0"
       id="path4871"
       d="m 236.23483,431.21357 -5.64,0 0,-11.28 -11.24,0 0,11.28 -5.64,0 0,-28.16001 28.16,0 0,16.88 -5.64,0 0,11.28 z m 0,-16.88 0,-5.64 -16.88,0 0,5.64 16.88,0 z" />
  </g>
</svg>
