<?xml version="1.0" encoding="UTF-8" standalone="no"?>
<!-- Created with Inkscape (http://www.inkscape.org/) -->

<svg
   xmlns:dc="http://purl.org/dc/elements/1.1/"
   xmlns:cc="http://creativecommons.org/ns#"
   xmlns:rdf="http://www.w3.org/1999/02/22-rdf-syntax-ns#"
   xmlns:svg="http://www.w3.org/2000/svg"
   xmlns="http://www.w3.org/2000/svg"
   xmlns:xlink="http://www.w3.org/1999/xlink"
   xmlns:sodipodi="http://sodipodi.sourceforge.net/DTD/sodipodi-0.dtd"
   xmlns:inkscape="http://www.inkscape.org/namespaces/inkscape"
   width="210mm"
   height="297mm"
   viewBox="0 0 744.09448819 1052.3622047"
   id="svg4440"
   version="1.1"
   inkscape:version="0.91 r13725"
   sodipodi:docname="fadr-android-promo.svg">
  <defs
     id="defs4442">
    <linearGradient
       id="linearGradient4338-0-7"
       inkscape:collect="always">
      <stop
         id="stop5958"
         offset="0"
         style="stop-color:#df0002;stop-opacity:1" />
      <stop
         id="stop5960"
         offset="1"
         style="stop-color:#0008ff;stop-opacity:1" />
    </linearGradient>
    <radialGradient
       inkscape:collect="always"
       xlink:href="#linearGradient4338-0-7"
       id="radialGradient5954-9"
       cx="779.27777"
       cy="808.34595"
       fx="779.27777"
       fy="808.34595"
       r="220"
       gradientTransform="matrix(5.3249455,1.4142842e-7,-9.3777508e-8,2.0787704,-4903.5553,-1513.2596)"
       gradientUnits="userSpaceOnUse" />
  </defs>
  <sodipodi:namedview
     id="base"
     pagecolor="#ffffff"
     bordercolor="#666666"
     borderopacity="1.0"
     inkscape:pageopacity="0.0"
     inkscape:pageshadow="2"
     inkscape:zoom="0.35"
     inkscape:cx="-247.85714"
     inkscape:cy="977.14286"
     inkscape:document-units="px"
     inkscape:current-layer="layer1"
     showgrid="false"
     inkscape:window-width="1920"
     inkscape:window-height="1059"
     inkscape:window-x="1680"
     inkscape:window-y="0"
     inkscape:window-maximized="1" />
  <metadata
     id="metadata4445">
    <rdf:RDF>
      <cc:Work
         rdf:about="">
        <dc:format>image/svg+xml</dc:format>
        <dc:type
           rdf:resource="http://purl.org/dc/dcmitype/StillImage" />
        <dc:title></dc:title>
      </cc:Work>
    </rdf:RDF>
  </metadata>
  <g
     inkscape:label="Layer 1"
     inkscape:groupmode="layer"
     id="layer1">
    <g
       style="font-style:normal;font-variant:normal;font-weight:normal;font-stretch:normal;font-size:40px;line-height:125%;font-family:'DS Clone3D';-inkscape-font-specification:'DS Clone3D, Normal';text-align:start;letter-spacing:0px;word-spacing:0px;writing-mode:lr-tb;text-anchor:start;fill:#000000;fill-opacity:1;stroke:none;stroke-width:1px;stroke-linecap:butt;stroke-linejoin:miter;stroke-opacity:1"
       id="text4842"
       transform="translate(60.094943,-211.54503)">
      <path
         d="m 140.04,429.36219 -11.72,11.72 -11.28,0 -11.24,11.24 -5.8,0 0,-28.28 11.72,-11.72 28.32,0 0,5.76 -5.48,5.48 5.48,0 0,5.8 z"
         id="path4878"
         inkscape:connector-curvature="0" />
      <path
         d="m 172.8525,440.60219 -11.72,11.72 -5.8,0 0,-11.24 -5.48,0 -11.24,11.24 -5.8,0 0,-28.28 11.72,-11.72 28.32,0 0,28.28 z"
         id="path4880"
         inkscape:connector-curvature="0" />
      <path
         d="m 205.665,435.00219 -17.36,17.32 -22.68,0 0,-28.28 11.72,-11.72 22.68,0 0,5.64 5.64,0 0,17.04 z m -17.56,-0.16 0,-5.04 -4.96,0 0,5.04 4.96,0 z"
         id="path4882"
         inkscape:connector-curvature="0" />
      <path
         d="m 238.4775,429.36219 -5.64,5.64 0,5.64 -11.72,11.72 -5.76,0 0,-11.12 -11.12,11.12 -5.8,0 0,-28.32 11.72,-11.72 28.32,0 0,17.04 z"
         id="path4884"
         inkscape:connector-curvature="0" />
    </g>
    <g
       transform="translate(60.094943,-781.545)"
       id="g4931">
      <path
         d="m 117.52271,1010.4435 -5.64,0 0,-28.11999 28.16,0 0,5.64 -22.52,0 0,5.6 22.52,0 0,5.64 -22.52,0 0,11.23999 z"
         id="path4865"
         inkscape:connector-curvature="0"
         style="font-style:normal;font-variant:normal;font-weight:normal;font-stretch:normal;font-size:medium;line-height:125%;font-family:'DS Clone';-inkscape-font-specification:'DS Clone, Normal';text-align:start;letter-spacing:0px;word-spacing:0px;writing-mode:lr-tb;text-anchor:start;fill:#ffffff;fill-opacity:1;stroke:none;stroke-width:1px;stroke-linecap:butt;stroke-linejoin:miter;stroke-opacity:1" />
      <path
         d="m 172.85521,1010.4435 -5.64,0 0,-11.23999 -16.88,0 0,11.23999 -5.64,0 0,-28.11999 28.16,0 0,28.11999 z m -5.64,-16.87999 0,-5.6 -16.88,0 0,5.6 16.88,0 z"
         id="path4867"
         inkscape:connector-curvature="0"
         style="font-style:normal;font-variant:normal;font-weight:normal;font-stretch:normal;font-size:medium;line-height:125%;font-family:'DS Clone';-inkscape-font-specification:'DS Clone, Normal';text-align:start;letter-spacing:0px;word-spacing:0px;writing-mode:lr-tb;text-anchor:start;fill:#ffffff;fill-opacity:1;stroke:none;stroke-width:1px;stroke-linecap:butt;stroke-linejoin:miter;stroke-opacity:1" />
      <path
         d="m 205.66771,1004.8435 -5.64,0 0,5.6 -22.52,0 0,-28.11999 22.52,0 0,5.64 5.64,0 0,16.87999 z m -5.72,0 0,-16.87999 -16.8,0 0,16.87999 16.8,0 z"
         id="path4869"
         inkscape:connector-curvature="0"
         style="font-style:normal;font-variant:normal;font-weight:normal;font-stretch:normal;font-size:medium;line-height:125%;font-family:'DS Clone';-inkscape-font-specification:'DS Clone, Normal';text-align:start;letter-spacing:0px;word-spacing:0px;writing-mode:lr-tb;text-anchor:start;fill:#ffffff;fill-opacity:1;stroke:none;stroke-width:1px;stroke-linecap:butt;stroke-linejoin:miter;stroke-opacity:1" />
      <path
         d="m 232.84021,1010.4835 -5.64,0 0,-11.27999 -11.24,0 0,11.27999 -5.64,0 0,-28.15999 28.16,0 0,16.88 -5.64,0 0,11.27999 z m 0,-16.87999 0,-5.64 -16.88,0 0,5.64 16.88,0 z"
         id="path4871"
         inkscape:connector-curvature="0"
         style="font-style:normal;font-variant:normal;font-weight:normal;font-stretch:normal;font-size:medium;line-height:125%;font-family:'DS Clone';-inkscape-font-specification:'DS Clone, Normal';text-align:start;letter-spacing:0px;word-spacing:0px;writing-mode:lr-tb;text-anchor:start;fill:#ffffff;fill-opacity:1;stroke:none;stroke-width:1px;stroke-linecap:butt;stroke-linejoin:miter;stroke-opacity:1" />
    </g>
    <g
       id="g5138"
       transform="translate(1265.9438,635.25606)"
       inkscape:export-xdpi="90"
       inkscape:export-ydpi="90">
      <rect
         y="-82.89386"
         x="-1265.9438"
         height="500"
         width="1024"
         id="rect4136-0-0"
         style="opacity:1;fill:url(#radialGradient5954-9);fill-opacity:1;stroke:none;stroke-width:20;stroke-miterlimit:4;stroke-dasharray:none;stroke-opacity:1" />
      <g
         transform="matrix(4.3632896,0,0,4.3632896,-1489.112,-1710.9007)"
         id="text4842-1-3-0-0"
         style="font-style:normal;font-variant:normal;font-weight:normal;font-stretch:normal;font-size:40px;line-height:125%;font-family:'DS Clone3D';-inkscape-font-specification:'DS Clone3D, Normal';text-align:start;letter-spacing:0px;word-spacing:0px;writing-mode:lr-tb;text-anchor:start;opacity:0.07399998;fill:#000000;fill-opacity:1;stroke:none;stroke-width:1px;stroke-linecap:butt;stroke-linejoin:miter;stroke-opacity:1">
        <path
           inkscape:connector-curvature="0"
           id="path4878-0-6-1-8"
           d="m 140.04,429.36219 -11.72,11.72 -11.28,0 -11.24,11.24 -5.8,0 0,-28.28 11.72,-11.72 28.32,0 0,5.76 -5.48,5.48 5.48,0 0,5.8 z" />
        <path
           inkscape:connector-curvature="0"
           id="path4880-53-9-6-2"
           d="m 172.8525,440.60219 -11.72,11.72 -5.8,0 0,-11.24 -5.48,0 -11.24,11.24 -5.8,0 0,-28.28 11.72,-11.72 28.32,0 0,28.28 z" />
        <path
           inkscape:connector-curvature="0"
           id="path4882-6-1-9-4"
           d="m 205.665,435.00219 -17.36,17.32 -22.68,0 0,-28.28 11.72,-11.72 22.68,0 0,5.64 5.64,0 0,17.04 z m -17.56,-0.16 0,-5.04 -4.96,0 0,5.04 4.96,0 z" />
        <path
           inkscape:connector-curvature="0"
           id="path4884-4-4-7-0"
           d="m 238.4775,429.36219 -5.64,5.64 0,5.64 -11.72,11.72 -5.76,0 0,-11.12 -11.12,11.12 -5.8,0 0,-28.32 11.72,-11.72 28.32,0 0,17.04 z" />
      </g>
      <g
         style="opacity:0.03200001"
         id="g4931-6-5-2-8"
         transform="matrix(4.3632896,0,0,4.3632896,-1489.112,-4197.9759)">
        <path
           style="font-style:normal;font-variant:normal;font-weight:normal;font-stretch:normal;font-size:medium;line-height:125%;font-family:'DS Clone';-inkscape-font-specification:'DS Clone, Normal';text-align:start;letter-spacing:0px;word-spacing:0px;writing-mode:lr-tb;text-anchor:start;fill:#ffffff;fill-opacity:1;stroke:none;stroke-width:1px;stroke-linecap:butt;stroke-linejoin:miter;stroke-opacity:1"
           inkscape:connector-curvature="0"
           id="path4865-5-3-9-9"
           d="m 117.52271,1010.4435 -5.64,0 0,-28.11999 28.16,0 0,5.64 -22.52,0 0,5.6 22.52,0 0,5.64 -22.52,0 0,11.23999 z" />
        <path
           style="font-style:normal;font-variant:normal;font-weight:normal;font-stretch:normal;font-size:medium;line-height:125%;font-family:'DS Clone';-inkscape-font-specification:'DS Clone, Normal';text-align:start;letter-spacing:0px;word-spacing:0px;writing-mode:lr-tb;text-anchor:start;fill:#ffffff;fill-opacity:1;stroke:none;stroke-width:1px;stroke-linecap:butt;stroke-linejoin:miter;stroke-opacity:1"
           inkscape:connector-curvature="0"
           id="path4867-9-7-8-6"
           d="m 172.85521,1010.4435 -5.64,0 0,-11.23999 -16.88,0 0,11.23999 -5.64,0 0,-28.11999 28.16,0 0,28.11999 z m -5.64,-16.87999 0,-5.6 -16.88,0 0,5.6 16.88,0 z" />
        <path
           style="font-style:normal;font-variant:normal;font-weight:normal;font-stretch:normal;font-size:medium;line-height:125%;font-family:'DS Clone';-inkscape-font-specification:'DS Clone, Normal';text-align:start;letter-spacing:0px;word-spacing:0px;writing-mode:lr-tb;text-anchor:start;fill:#ffffff;fill-opacity:1;stroke:none;stroke-width:1px;stroke-linecap:butt;stroke-linejoin:miter;stroke-opacity:1"
           inkscape:connector-curvature="0"
           id="path4869-2-3-9-2"
           d="m 205.66771,1004.8435 -5.64,0 0,5.6 -22.52,0 0,-28.11999 22.52,0 0,5.64 5.64,0 0,16.87999 z m -5.72,0 0,-16.87999 -16.8,0 0,16.87999 16.8,0 z" />
        <path
           style="font-style:normal;font-variant:normal;font-weight:normal;font-stretch:normal;font-size:medium;line-height:125%;font-family:'DS Clone';-inkscape-font-specification:'DS Clone, Normal';text-align:start;letter-spacing:0px;word-spacing:0px;writing-mode:lr-tb;text-anchor:start;fill:#ffffff;fill-opacity:1;stroke:none;stroke-width:1px;stroke-linecap:butt;stroke-linejoin:miter;stroke-opacity:1"
           inkscape:connector-curvature="0"
           id="path4871-1-5-4-9"
           d="m 232.84021,1010.4835 -5.64,0 0,-11.27999 -11.24,0 0,11.27999 -5.64,0 0,-28.15999 28.16,0 0,16.88 -5.64,0 0,11.27999 z m 0,-16.87999 0,-5.64 -16.88,0 0,5.64 16.88,0 z" />
      </g>
    </g>
  </g>
</svg>
