<?xml version="1.0" encoding="UTF-8" standalone="no"?>
<!-- Created with Inkscape (http://www.inkscape.org/) -->

<svg
   xmlns:dc="http://purl.org/dc/elements/1.1/"
   xmlns:cc="http://creativecommons.org/ns#"
   xmlns:rdf="http://www.w3.org/1999/02/22-rdf-syntax-ns#"
   xmlns:svg="http://www.w3.org/2000/svg"
   xmlns="http://www.w3.org/2000/svg"
   xmlns:xlink="http://www.w3.org/1999/xlink"
   xmlns:sodipodi="http://sodipodi.sourceforge.net/DTD/sodipodi-0.dtd"
   xmlns:inkscape="http://www.inkscape.org/namespaces/inkscape"
   width="210mm"
   height="297mm"
   viewBox="0 0 744.09448819 1052.3622047"
   id="svg2"
   version="1.1"
   inkscape:version="0.91 r13725"
   sodipodi:docname="fadr-android-icons.svg">
  <defs
     id="defs4">
    <linearGradient
       id="linearGradient4227"
       inkscape:collect="always">
      <stop
         id="stop4229"
         offset="0"
         style="stop-color:#c6001d;stop-opacity:1" />
      <stop
         id="stop4231"
         offset="1"
         style="stop-color:#1904c9;stop-opacity:1" />
    </linearGradient>
    <linearGradient
       inkscape:collect="always"
       xlink:href="#linearGradient4227"
       id="linearGradient20210-0-7"
       x1="-190"
       y1="247.3622"
       x2="-80"
       y2="247.3622"
       gradientUnits="userSpaceOnUse"
       gradientTransform="matrix(2.7903099,0,0,1.0731,36.786103,540.16429)" />
    <linearGradient
       inkscape:collect="always"
       xlink:href="#linearGradient4227"
       id="linearGradient20210-0-7-7"
       x1="-190"
       y1="247.3622"
       x2="-80"
       y2="247.3622"
       gradientUnits="userSpaceOnUse"
       gradientTransform="matrix(0.79859739,0,0,0.30712532,-61.50731,365.75434)" />
    <linearGradient
       inkscape:collect="always"
       xlink:href="#linearGradient4227"
       id="linearGradient20210-0-7-7-3"
       x1="-190"
       y1="247.3622"
       x2="-80"
       y2="247.3622"
       gradientUnits="userSpaceOnUse"
       gradientTransform="matrix(0.54307473,0,0,0.20885618,-74.094664,246.16015)" />
    <linearGradient
       inkscape:collect="always"
       xlink:href="#linearGradient4227"
       id="linearGradient20210-0-7-7-3-3"
       x1="-190"
       y1="247.3622"
       x2="-80"
       y2="247.3622"
       gradientUnits="userSpaceOnUse"
       gradientTransform="matrix(0.4073654,0,0,0.15666496,-80.909774,157.27829)" />
    <linearGradient
       inkscape:collect="always"
       xlink:href="#linearGradient4227"
       id="linearGradient20210-0-7-7-3-3-9"
       x1="-190"
       y1="247.3622"
       x2="-80"
       y2="247.3622"
       gradientUnits="userSpaceOnUse"
       gradientTransform="matrix(0.27165607,0,0,0.10447374,-88.07843,98.087764)" />
  </defs>
  <sodipodi:namedview
     id="base"
     pagecolor="#ffffff"
     bordercolor="#666666"
     borderopacity="1.0"
     inkscape:pageopacity="0.0"
     inkscape:pageshadow="2"
     inkscape:zoom="1"
     inkscape:cx="835.37035"
     inkscape:cy="817.20361"
     inkscape:document-units="px"
     inkscape:current-layer="layer1"
     showgrid="true"
     inkscape:snap-bbox="true"
     inkscape:snap-nodes="true"
     inkscape:snap-bbox-midpoints="false"
     inkscape:snap-bbox-edge-midpoints="false"
     inkscape:bbox-nodes="false"
     inkscape:window-width="1920"
     inkscape:window-height="1059"
     inkscape:window-x="1680"
     inkscape:window-y="0"
     inkscape:window-maximized="1"
     inkscape:bbox-paths="false"
     showguides="true"
     inkscape:guide-bbox="true">
    <inkscape:grid
       type="xygrid"
       id="grid4282" />
    <sodipodi:guide
       position="100,950.00002"
       orientation="1,0"
       id="guide4389" />
    <sodipodi:guide
       position="100,950.00002"
       orientation="0,1"
       id="guide4391" />
    <sodipodi:guide
       position="148,950.00002"
       orientation="1,0"
       id="guide4393" />
    <sodipodi:guide
       position="160,950.00002"
       orientation="1,0"
       id="guide4395" />
    <sodipodi:guide
       position="232,950.00002"
       orientation="1,0"
       id="guide4397" />
    <sodipodi:guide
       position="250,820.00002"
       orientation="1,0"
       id="guide4399" />
    <sodipodi:guide
       position="346,950.00002"
       orientation="1,0"
       id="guide4401" />
    <sodipodi:guide
       position="370,950.00002"
       orientation="1,0"
       id="guide4403" />
    <sodipodi:guide
       position="514,950.00002"
       orientation="1,0"
       id="guide4405" />
    <sodipodi:guide
       position="550,1030"
       orientation="1,0"
       id="guide4226" />
  </sodipodi:namedview>
  <metadata
     id="metadata7">
    <rdf:RDF>
      <cc:Work
         rdf:about="">
        <dc:format>image/svg+xml</dc:format>
        <dc:type
           rdf:resource="http://purl.org/dc/dcmitype/StillImage" />
        <dc:title />
      </cc:Work>
    </rdf:RDF>
  </metadata>
  <g
     inkscape:groupmode="layer"
     id="layer2"
     inkscape:label="helper-icon-bg"
     style="display:none">
    <rect
       style="opacity:1;fill:#0d47a1;fill-opacity:1;stroke:none;stroke-width:20;stroke-miterlimit:4;stroke-dasharray:none;stroke-opacity:1"
       id="rect4303"
       width="48"
       height="48"
       x="100"
       y="102.36221" />
    <rect
       style="opacity:1;fill:#0d47a1;fill-opacity:1;stroke:none;stroke-width:20;stroke-miterlimit:4;stroke-dasharray:none;stroke-opacity:1"
       id="rect4303-7"
       width="72"
       height="72"
       x="160"
       y="102.36221" />
    <rect
       style="opacity:1;fill:#0d47a1;fill-opacity:1;stroke:none;stroke-width:20;stroke-miterlimit:4;stroke-dasharray:none;stroke-opacity:1"
       id="rect4303-7-1"
       width="96"
       height="96"
       x="250"
       y="102.36221" />
    <rect
       style="opacity:1;fill:#0d47a1;fill-opacity:1;stroke:none;stroke-width:20;stroke-miterlimit:4;stroke-dasharray:none;stroke-opacity:1"
       id="rect4303-7-1-5"
       width="144"
       height="144"
       x="370"
       y="102.36221" />
  </g>
  <g
     inkscape:groupmode="layer"
     id="layer3"
     inkscape:label="helper-icon-size-labels"
     style="display:inline">
    <rect
       style="display:inline;opacity:1;fill:url(#linearGradient20210-0-7);fill-opacity:1;stroke:none;stroke-width:1;stroke-miterlimit:4;stroke-dasharray:none;stroke-opacity:1"
       id="rect4199-9-1"
       width="306.93411"
       height="225.35098"
       x="-493.37265"
       y="692.93304"
       transform="matrix(0,-1,1,0,0,0)"
       inkscape:export-filename="/home/tong/dev/project/fadr/data/fadr-android/res/mipmap-xxhdpi/ic_launcher.png"
       inkscape:export-xdpi="90"
       inkscape:export-ydpi="90" />
    <text
       xml:space="preserve"
       style="font-style:normal;font-weight:normal;font-size:12.5px;line-height:125%;font-family:sans-serif;letter-spacing:0px;word-spacing:0px;display:inline;fill:#000000;fill-opacity:1;stroke:none;stroke-width:1px;stroke-linecap:butt;stroke-linejoin:miter;stroke-opacity:1"
       x="368.22522"
       y="81.540771"
       id="text4537"
       sodipodi:linespacing="125%"><tspan
         sodipodi:role="line"
         id="tspan4539"
         x="368.22522"
         y="81.540771">144</tspan></text>
    <text
       xml:space="preserve"
       style="font-style:normal;font-weight:normal;font-size:12.5px;line-height:125%;font-family:sans-serif;letter-spacing:0px;word-spacing:0px;display:inline;fill:#000000;fill-opacity:1;stroke:none;stroke-width:1px;stroke-linecap:butt;stroke-linejoin:miter;stroke-opacity:1"
       x="249.354"
       y="81.540771"
       id="text4537-4"
       sodipodi:linespacing="125%"><tspan
         sodipodi:role="line"
         id="tspan4539-1"
         x="249.354"
         y="81.540771">96</tspan></text>
    <text
       xml:space="preserve"
       style="font-style:normal;font-weight:normal;font-size:12.5px;line-height:125%;font-family:sans-serif;letter-spacing:0px;word-spacing:0px;display:inline;fill:#000000;fill-opacity:1;stroke:none;stroke-width:1px;stroke-linecap:butt;stroke-linejoin:miter;stroke-opacity:1"
       x="160.01105"
       y="81.460938"
       id="text4537-1"
       sodipodi:linespacing="125%"><tspan
         sodipodi:role="line"
         id="tspan4539-4"
         x="160.01105"
         y="81.460938">72</tspan></text>
    <text
       xml:space="preserve"
       style="font-style:normal;font-weight:normal;font-size:12.5px;line-height:125%;font-family:sans-serif;letter-spacing:0px;word-spacing:0px;display:inline;fill:#000000;fill-opacity:1;stroke:none;stroke-width:1px;stroke-linecap:butt;stroke-linejoin:miter;stroke-opacity:1"
       x="99.353981"
       y="81.544449"
       id="text4537-1-1"
       sodipodi:linespacing="125%"><tspan
         sodipodi:role="line"
         id="tspan4539-4-5"
         x="99.353981"
         y="81.544449">48</tspan></text>
    <text
       xml:space="preserve"
       style="font-style:normal;font-weight:normal;font-size:12.5px;line-height:125%;font-family:sans-serif;letter-spacing:0px;word-spacing:0px;display:inline;fill:#000000;fill-opacity:1;stroke:none;stroke-width:1px;stroke-linecap:butt;stroke-linejoin:miter;stroke-opacity:1"
       x="552.21063"
       y="82.853058"
       id="text4537-7"
       sodipodi:linespacing="125%"><tspan
         sodipodi:role="line"
         x="552.21063"
         y="82.853058"
         id="tspan4228">512</tspan></text>
    <path
       style="fill:#0b0b0b;fill-opacity:1;stroke:#0b0b0b;stroke-opacity:1"
       inkscape:connector-curvature="0"
       d="m 891.33338,123.69554 -170.66667,0 c -35.41333,0 -64,28.58667 -64,64.00001 l 0,341.33334 c 0,35.41333 28.58667,64 64,64 l 170.66667,0 c 35.41334,0 64.00001,-28.58667 64.00001,-64 l 0,-341.33334 c 0,-35.41334 -28.58667,-64.00001 -64.00001,-64.00001 z m -42.66666,426.66668 -85.33334,0 0,-21.33333 85.33334,0 0,21.33333 z m 69.33333,-64 -224.00001,0 0,-298.66667 224.00001,0 0,298.66667 z"
       id="path3448-1-1-2-0-8"
       inkscape:export-xdpi="90"
       inkscape:export-ydpi="90" />
    <path
       style="fill:none"
       inkscape:connector-curvature="0"
       d="m 550.00004,102.36221 512.00006,0 0,512.00002 -512.00006,0 z"
       id="path3450-2-7-3-3-3"
       inkscape:export-xdpi="90"
       inkscape:export-ydpi="90" />
    <rect
       style="fill:#002b36;fill-opacity:1;stroke:none"
       id="rect3206-16-8-3-9"
       width="1488.189"
       height="2104.7244"
       x="-2104.1899"
       y="-1387.3624" />
    <rect
       style="fill:#dc322f;fill-opacity:1;stroke:none"
       id="rect10764-0-0-5-0-16-9-4"
       width="50"
       height="1488.1899"
       x="-1292.3622"
       y="-1824.095"
       transform="matrix(0,-1,1,0,0,0)" />
    <rect
       style="fill:#dc322f;fill-opacity:1;stroke:none"
       id="rect10764-2-4-2-7-1"
       width="20"
       height="2105"
       x="616"
       y="-717.36176"
       transform="scale(-1,-1)" />
    <rect
       style="fill:#dc322f;fill-opacity:1;stroke:none"
       id="rect10764-0-3-8-0-5-8"
       width="20.000008"
       height="1488"
       x="1367.6378"
       y="-2104"
       transform="matrix(0,-1,1,0,0,0)" />
    <rect
       style="fill:#dc322f;fill-opacity:1;stroke:none"
       id="rect10764-3-4-0-8-6-5"
       width="17.716536"
       height="2105"
       x="2086.4707"
       y="-717.36176"
       transform="scale(-1,-1)" />
    <rect
       style="display:inline;opacity:1;fill:url(#linearGradient20210-0-7-7);fill-opacity:1;stroke:none;stroke-width:1;stroke-miterlimit:4;stroke-dasharray:none;stroke-opacity:1"
       id="rect4199-9-1-7"
       width="87.845718"
       height="64.496315"
       x="-213.24077"
       y="409.47739"
       transform="matrix(0,-1,1,0,0,0)"
       inkscape:export-filename="/home/tong/dev/project/fadr/data/fadr-android/res/mipmap-xxhdpi/ic_launcher.png"
       inkscape:export-xdpi="90"
       inkscape:export-ydpi="90" />
    <rect
       style="display:inline;opacity:1;fill:url(#linearGradient20210-0-7-7-3);fill-opacity:1;stroke:none;stroke-width:1;stroke-miterlimit:4;stroke-dasharray:none;stroke-opacity:1"
       id="rect4199-9-1-7-3"
       width="59.738224"
       height="43.859795"
       x="-177.27882"
       y="275.89337"
       transform="matrix(0,-1,1,0,0,0)"
       inkscape:export-filename="/home/tong/dev/project/fadr/data/fadr-android/res/mipmap-xhdpi/ic_launcher.png"
       inkscape:export-xdpi="90"
       inkscape:export-ydpi="90" />
    <rect
       style="display:inline;opacity:1;fill:url(#linearGradient20210-0-7-7-3-3);fill-opacity:1;stroke:none;stroke-width:1;stroke-miterlimit:4;stroke-dasharray:none;stroke-opacity:1"
       id="rect4199-9-1-7-3-9"
       width="44.810196"
       height="32.899639"
       x="-158.30917"
       y="179.58145"
       transform="matrix(0,-1,1,0,0,0)"
       inkscape:export-filename="/home/tong/dev/project/fadr/data/fadr-android/res/mipmap-hdpi/ic_launcher.png"
       inkscape:export-xdpi="90"
       inkscape:export-ydpi="90" />
    <rect
       style="display:inline;opacity:1;fill:url(#linearGradient20210-0-7-7-3-3-9);fill-opacity:1;stroke:none;stroke-width:1;stroke-miterlimit:4;stroke-dasharray:none;stroke-opacity:1"
       id="rect4199-9-1-7-3-9-0"
       width="29.88217"
       height="21.939484"
       x="-139.69307"
       y="112.96087"
       transform="matrix(0,-1,1,0,0,0)"
       inkscape:export-filename="/home/tong/dev/project/fadr/data/fadr-android/res/mipmap-mdpi/ic_launcher.png"
       inkscape:export-xdpi="90"
       inkscape:export-ydpi="90" />
  </g>
  <g
     inkscape:label="icons"
     inkscape:groupmode="layer"
     id="layer1">
    <path
       style="fill:#0b0b0b;fill-opacity:1"
       inkscape:connector-curvature="0"
       d="m 132,104.2316 -16,0 c -3.32,0 -6,2.68 -6,6 l 0,32 c 0,3.32 2.68,6 6,6 l 16,0 c 3.32,0 6,-2.68 6,-6 l 0,-32 c 0,-3.32 -2.68,-6 -6,-6 z m -4,40 -8,0 0,-2 8,0 0,2 z m 6.5,-6 -21,0 0,-28 21,0 0,28 z"
       id="path3448-1"
       inkscape:export-filename="/home/tong/dev/project/fadr/data/fadr-android/res/mipmap-mdpi/ic_launcher.png"
       inkscape:export-xdpi="90"
       inkscape:export-ydpi="90" />
    <path
       style="fill:none"
       inkscape:connector-curvature="0"
       d="m 100,102.2316 48,0 0,48 -48,0 z"
       id="path3450-2"
       inkscape:export-filename="/home/tong/dev/project/fadr/data/fadr-android/res/mipmap-mdpi/ic_launcher.png"
       inkscape:export-xdpi="90"
       inkscape:export-ydpi="90" />
    <g
       style="fill:#000000"
       id="g3458-5-8"
       transform="matrix(3,0,0,3,160,102.3622)"
       inkscape:export-filename="/home/tong/dev/project/fadr/data/fadr-android/res/mipmap-hdpi/ic_launcher.png"
       inkscape:export-xdpi="90"
       inkscape:export-ydpi="90">
      <path
         id="path3448-1-1"
         d="M 16,1 8,1 C 6.34,1 5,2.34 5,4 l 0,16 c 0,1.66 1.34,3 3,3 l 8,0 c 1.66,0 3,-1.34 3,-3 L 19,4 C 19,2.34 17.66,1 16,1 Z m -2,20 -4,0 0,-1 4,0 0,1 z m 3.25,-3 -10.5,0 0,-14 10.5,0 0,14 z"
         inkscape:connector-curvature="0"
         style="fill:#0b0b0b;fill-opacity:1" />
      <path
         id="path3450-2-7"
         d="M 0,0 24,0 24,24 0,24 Z"
         inkscape:connector-curvature="0"
         style="fill:none" />
    </g>
    <path
       style="fill:#0b0b0b;fill-opacity:1"
       inkscape:connector-curvature="0"
       d="m 314,106.3622 -32,0 c -6.64,0 -12,5.36 -12,12 l 0,64 c 0,6.64 5.36,12 12,12 l 32,0 c 6.64,0 12,-5.36 12,-12 l 0,-64 c 0,-6.64 -5.36,-12 -12,-12 z m -8,80 -16,0 0,-4 16,0 0,4 z m 13,-12 -42,0 0,-56 42,0 0,56 z"
       id="path3448-1-1-2"
       inkscape:export-filename="/home/tong/dev/project/fadr/data/fadr-android/res/mipmap-xhdpi/ic_launcher.png"
       inkscape:export-xdpi="90"
       inkscape:export-ydpi="90" />
    <path
       style="fill:none"
       inkscape:connector-curvature="0"
       d="m 250,102.3622 96,0 0,96 -96,0 z"
       id="path3450-2-7-3"
       inkscape:export-filename="/home/tong/dev/project/fadr/data/fadr-android/res/mipmap-xhdpi/ic_launcher.png"
       inkscape:export-xdpi="90"
       inkscape:export-ydpi="90" />
    <path
       style="fill:#0b0b0b;fill-opacity:1"
       inkscape:connector-curvature="0"
       d="m 466,108.3622 -48,0 c -9.96,0 -18,8.04 -18,18 l 0,96 c 0,9.96 8.04,18 18,18 l 48,0 c 9.96,0 18,-8.04 18,-18 l 0,-96 c 0,-9.96 -8.04,-18 -18,-18 z m -12,120 -24,0 0,-6 24,0 0,6 z m 19.5,-18 -63,0 0,-84 63,0 0,84 z"
       id="path3448-1-1-2-0"
       inkscape:export-filename="/home/tong/dev/project/fadr/data/fadr-android/res/mipmap-xxhdpi/ic_launcher.png"
       inkscape:export-xdpi="90"
       inkscape:export-ydpi="90" />
    <path
       style="fill:none"
       inkscape:connector-curvature="0"
       d="m 370,102.3622 144,0 0,144 -144,0 z"
       id="path3450-2-7-3-3"
       inkscape:export-filename="/home/tong/dev/project/fadr/data/fadr-android/res/mipmap-xxhdpi/ic_launcher.png"
       inkscape:export-xdpi="90"
       inkscape:export-ydpi="90" />
  </g>
</svg>
